#N canvas 618 272 903 584 10;
#N canvas 719 218 460 673 loadsounds 1;
#X obj 3 3 loadbang;
#X msg 3 47 read -resize ./Audio/baseLayer0.wav layer0;
#X msg 13 67 read -resize ./Audio/baseLayer1.wav layer1;
#X msg 23 87 read -resize ./Audio/baseLayer2.wav layer2;
#X msg 33 107 read -resize ./Audio/baseLayer3.wav layer3;
#X msg 43 127 read -resize ./Audio/oneShot0.wav shot0;
#X msg 53 147 read -resize ./Audio/oneShot1.wav shot1;
#X msg 63 167 read -resize ./Audio/oneShot2.wav shot2;
#X msg 73 187 read -resize ./Audio/oneShot3.wav shot3;
#X obj 3 263 soundfiler;
#X obj 3 286 array define layer0;
#X obj 3 306 array define layer1;
#X obj 3 326 array define layer2;
#X obj 3 346 array define layer3;
#X obj 3 366 array define shot0;
#X obj 3 386 array define shot1;
#X obj 3 406 array define shot2;
#X obj 3 426 array define shot3;
#X obj 3 446 array define line0;
#X obj 3 466 array define line1;
#X obj 3 486 array define line2;
#X obj 3 26 delay 5000;
#X msg 83 207 read -resize ./Audio/convoLine0.wav line0;
#X msg 93 227 read -resize ./Audio/convoLine1.wav line1;
#X msg 103 247 read -resize ./Audio/convoLine1.wav line2;
#X connect 0 0 21 0;
#X connect 1 0 9 0;
#X connect 2 0 9 0;
#X connect 3 0 9 0;
#X connect 4 0 9 0;
#X connect 5 0 9 0;
#X connect 6 0 9 0;
#X connect 7 0 9 0;
#X connect 8 0 9 0;
#X connect 21 0 1 0;
#X connect 21 0 2 0;
#X connect 21 0 3 0;
#X connect 21 0 4 0;
#X connect 21 0 5 0;
#X connect 21 0 6 0;
#X connect 21 0 7 0;
#X connect 21 0 8 0;
#X connect 21 0 22 0;
#X connect 21 0 23 0;
#X connect 21 0 24 0;
#X connect 22 0 9 0;
#X connect 23 0 9 0;
#X connect 24 0 9 0;
#X restore 6 9 pd loadsounds;
#X obj 7 34 loadbang;
#X obj 8 157 dac~;
#N canvas 470 299 891 643 base_layers 0;
#X obj 7 14 inlet;
#X obj 7 84 tabplay~ layer0;
#X obj 7 64 bng 15 250 50 0 empty empty empty 17 7 0 10 -262144 -1
-1;
#X obj 107 64 bng 15 250 50 0 empty empty empty 17 7 0 10 -262144 -1
-1;
#X obj 207 64 bng 15 250 50 0 empty empty empty 17 7 0 10 -262144 -1
-1;
#X obj 307 64 bng 15 250 50 0 empty empty empty 17 7 0 10 -262144 -1
-1;
#X obj 107 84 tabplay~ layer1;
#X obj 207 84 tabplay~ layer2;
#X obj 307 84 tabplay~ layer3;
#X obj 8 126 outlet~;
#X connect 0 0 2 0;
#X connect 0 0 3 0;
#X connect 0 0 4 0;
#X connect 0 0 5 0;
#X connect 1 0 9 0;
#X connect 1 1 2 0;
#X connect 2 0 1 0;
#X connect 3 0 6 0;
#X connect 4 0 7 0;
#X connect 5 0 8 0;
#X connect 6 0 9 0;
#X connect 6 1 3 0;
#X connect 7 0 9 0;
#X connect 7 1 4 0;
#X connect 8 0 9 0;
#X connect 8 1 5 0;
#X restore 7 64 pd base_layers;
#N canvas 134 128 891 643 one_shots 0;
#X obj 57 14 inlet;
#X obj 58 277 outlet~;
#X obj 57 68 random 4;
#X obj 95 121 sel 0 1 2 3;
#X obj 57 235 tabplay~ shot0;
#X obj 57 121 del 5;
#X obj 57 91 t b f;
#X obj 138 257 bng 15 250 50 0 empty empty empty 17 7 0 10 -262144
-1 -1;
#X obj 138 278 random 5000;
#X obj 138 301 + 1000;
#X obj 93 326 del 5000;
#X obj 93 348 bng 15 250 50 0 empty empty empty 17 7 0 10 -262144 -1
-1;
#X msg 95 144 set shot0;
#X msg 110 164 set shot1;
#X msg 126 184 set shot2;
#X msg 142 204 set shot3;
#X connect 0 0 2 0;
#X connect 2 0 6 0;
#X connect 3 0 12 0;
#X connect 3 1 13 0;
#X connect 3 2 14 0;
#X connect 3 3 15 0;
#X connect 4 0 1 0;
#X connect 4 1 7 0;
#X connect 5 0 4 0;
#X connect 6 0 5 0;
#X connect 6 1 3 0;
#X connect 7 0 8 0;
#X connect 7 0 10 0;
#X connect 8 0 9 0;
#X connect 9 0 10 1;
#X connect 10 0 11 0;
#X connect 11 0 2 0;
#X connect 12 0 4 0;
#X connect 13 0 4 0;
#X connect 14 0 4 0;
#X connect 15 0 4 0;
#X restore 102 64 pd one_shots;
#N canvas 524 259 891 643 convo_lines 0;
#X obj 57 14 inlet;
#X obj 56 305 outlet~;
#X obj 160 177 bng 15 250 50 0 empty empty empty 17 7 0 10 -262144
-1 -1;
#X obj 109 263 bng 15 250 50 0 empty empty empty 17 7 0 10 -262144
-1 -1;
#X obj 160 198 random 30000;
#X obj 160 220 + 15000;
#X obj 109 241 del 15000;
#X obj 140 77 bng 15 250 50 0 empty empty empty 17 7 0 10 -262144 -1
-1;
#X obj 150 127 bng 15 250 50 0 empty empty empty 17 7 0 10 -262144
-1 -1;
#X obj 57 56 tabplay~ line0;
#X obj 67 105 tabplay~ line1;
#X obj 77 156 tabplay~ line2;
#X connect 0 0 9 0;
#X connect 2 0 4 0;
#X connect 2 0 6 0;
#X connect 3 0 9 0;
#X connect 4 0 5 0;
#X connect 5 0 6 1;
#X connect 6 0 3 0;
#X connect 7 0 10 0;
#X connect 8 0 11 0;
#X connect 9 0 1 0;
#X connect 9 1 7 0;
#X connect 10 0 1 0;
#X connect 10 1 8 0;
#X connect 11 0 1 0;
#X connect 11 1 2 0;
#X restore 182 64 pd convo_lines;
#X connect 1 0 3 0;
#X connect 1 0 4 0;
#X connect 1 0 5 0;
#X connect 3 0 2 0;
#X connect 3 0 2 1;
#X connect 4 0 2 0;
#X connect 4 0 2 1;
#X connect 5 0 2 0;
#X connect 5 0 2 1;
