#N canvas 381 146 1030 657 12;
#N canvas 677 177 687 305 layer1 0;
#X obj 29 20 inlet;
#X obj 186 27 inlet;
#X obj 260 26 inlet;
#X obj 186 150 line;
#X obj 29 237 *~;
#X floatatom 186 175 5 0 0 0 - - -;
#X obj 29 176 tabplay~ layer1;
#X msg 186 84 1 1000;
#X msg 260 84 0 1000;
#X obj 28 264 outlet~;
#X floatatom 29 43 5 0 0 0 - - -;
#N canvas 0 50 450 250 (subpatch) 0;
#X array layer1 5.27775e+06 float 2;
#X coords 0 1 5.27775e+06 -1 200 140 1 0 0;
#X restore 338 27 graph;
#X obj 29 67 sel 0 1;
#X msg 29 102 stop;
#X msg 69 102 bang;
#X obj 132 223 bng 15 250 50 0 empty empty empty 17 7 0 10 -262144
-1 -1;
#X connect 0 0 10 0;
#X connect 1 0 7 0;
#X connect 2 0 8 0;
#X connect 3 0 5 0;
#X connect 4 0 9 0;
#X connect 5 0 4 1;
#X connect 6 0 4 0;
#X connect 6 1 15 0;
#X connect 7 0 3 0;
#X connect 8 0 3 0;
#X connect 10 0 12 0;
#X connect 12 0 13 0;
#X connect 12 1 14 0;
#X connect 13 0 6 0;
#X connect 14 0 6 0;
#X connect 15 0 6 0;
#X restore 529 311 pd layer1;
#X obj 529 285 tgl 15 0 empty empty empty 17 7 0 10 -262144 -1 -1 0
1;
#X obj 908 412 dac~;
#X obj 559 284 bng 15 250 50 0 empty empty empty 17 7 0 10 -262144
-1 -1;
#X obj 589 284 bng 15 250 50 0 empty empty empty 17 7 0 10 -262144
-1 -1;
#X text 455 259 Play/Stop | Fade in | Fade out;
#N canvas 342 195 595 440 loading 0;
#X obj 8 243 soundfiler;
#X obj 8 13 loadbang;
#X msg 8 97 read -resize test.wav layer1;
#X connect 1 0 2 0;
#X connect 2 0 0 0;
#X restore 5 6 pd loading;
#X obj 209 49 hsl 128 15 0 1000 0 0 empty empty empty -2 -8 0 10 -262144
-1 -1 0 1;
#X obj 499 42 hsl 128 15 0 1000 0 0 empty empty empty -2 -8 0 10 -262144
-1 -1 9647 1;
#X obj 948 141 vsl 15 128 0.01 1 1 0 empty empty empty 0 -9 0 10 -262144
-1 -1 0 1;
#X text 939 105 Volume;
#X floatatom 206 72 5 0 0 0 - - -;
#X floatatom 496 63 5 0 0 0 - - -;
#X floatatom 948 277 5 0 0 0 - - -;
#X obj 930 355 *~;
#X floatatom 206 148 5 0 0 0 - - -;
#X obj 496 87 t b f;
#X text 204 17 Freq 1;
#X text 496 3 Freq 2;
#X obj 206 125 expr if ($f1 > 200 && $f1 < 215 \, 1 \, 0);
#X obj 206 96 t b f;
#X floatatom 496 149 5 0 0 0 - - -;
#X obj 206 174 expr if ($f1 == 1 && $f2 == 1 \, 1 \, 0);
#X floatatom 206 199 5 0 0 0 - - -;
#X obj 206 223 sel 0 1;
#X obj 694 225 bng 15 250 50 0 empty empty empty 17 7 0 10 -262144
-1 -1;
#X obj 738 226 bng 15 250 50 0 empty empty empty 17 7 0 10 -262144
-1 -1;
#N canvas 614 168 687 305 noiseLayer 0;
#X obj 83 27 inlet;
#X obj 157 26 inlet;
#X obj 83 150 line;
#X obj 29 237 *~;
#X floatatom 83 175 5 0 0 0 - - -;
#X obj 28 264 outlet~;
#X obj 29 149 noise~;
#X msg 83 84 0.8 1000;
#X msg 157 84 0.05 1000;
#X obj 239 24 inlet;
#X msg 239 83 0 1000;
#X connect 0 0 7 0;
#X connect 1 0 8 0;
#X connect 2 0 4 0;
#X connect 3 0 5 0;
#X connect 4 0 3 1;
#X connect 6 0 3 0;
#X connect 7 0 2 0;
#X connect 8 0 2 0;
#X connect 9 0 10 0;
#X connect 10 0 2 0;
#X restore 694 252 pd noiseLayer;
#X obj 782 225 bng 15 250 50 0 empty empty empty 17 7 0 10 -262144
-1 -1;
#X text 672 201 Fade in | Fade out | Off;
#X floatatom 280 403 5 0 0 0 - - -;
#X floatatom 409 402 5 0 0 0 - - -;
#X floatatom 194 358 5 0 0 0 - - -;
#X obj 29 351 hsl 128 15 0 1000 0 0 empty empty empty -2 -8 0 10 -262144
-1 -1 0 1;
#X obj 280 377 * -1;
#X obj 584 535 scale 0 1 1 0;
#X floatatom 669 88 5 0 0 0 - - -;
#X floatatom 844 94 5 0 0 0 - - -;
#X obj 496 124 expr if ($f1 > $f2 - $f3 && $f1 < $f2 + $f3 \, $f1 \,
0);
#X obj 530 417 moses;
#X floatatom 562 381 5 0 0 0 - - -;
#X floatatom 578 444 5 0 0 0 - - -;
#X obj 546 471 moses;
#X floatatom 522 380 5 0 0 0 - - -;
#X floatatom 546 495 5 0 0 0 - - -;
#X floatatom 575 570 5 0 0 0 - - -;
#X obj 578 418 + 11;
#X connect 0 0 14 0;
#X connect 1 0 0 0;
#X connect 3 0 0 1;
#X connect 4 0 0 2;
#X connect 7 0 11 0;
#X connect 8 0 12 0;
#X connect 9 0 13 0;
#X connect 11 0 20 0;
#X connect 12 0 16 0;
#X connect 13 0 14 1;
#X connect 14 0 2 0;
#X connect 14 0 2 1;
#X connect 15 0 22 0;
#X connect 16 0 19 0;
#X connect 16 1 38 0;
#X connect 19 0 15 0;
#X connect 20 0 38 0;
#X connect 20 1 19 0;
#X connect 21 0 22 1;
#X connect 22 0 23 0;
#X connect 23 0 24 0;
#X connect 24 0 4 0;
#X connect 24 0 25 0;
#X connect 24 1 3 0;
#X connect 24 1 26 0;
#X connect 25 0 27 0;
#X connect 26 0 27 1;
#X connect 27 0 14 0;
#X connect 28 0 27 2;
#X connect 32 0 34 0;
#X connect 34 0 30 0;
#X connect 35 0 45 0;
#X connect 36 0 38 1;
#X connect 37 0 38 2;
#X connect 38 0 21 0;
#X connect 39 1 42 0;
#X connect 40 0 39 1;
#X connect 40 0 35 1;
#X connect 40 0 46 0;
#X connect 41 0 42 1;
#X connect 41 0 35 2;
#X connect 42 0 44 0;
#X connect 43 0 39 0;
#X connect 44 0 35 0;
#X connect 46 0 41 0;
