#N canvas 748 155 903 562 10;
#X obj 146 235 noise~;
#X obj 97 375 dac~;
#X obj 146 341 *~ 0.5, f 7;
#X obj 146 258 lop~ 1000;
#X obj 41 30 loadbang;
#X msg 41 53 \; pd dsp 1;
#X msg 105 53 listen 3000;
#X obj 105 97 oscparse;
#X obj 105 120 route list;
#X obj 105 143 route /sampleVol /noiseVol, f 27;
#X floatatom 105 166 5 0 0 0 - - -;
#X floatatom 185 167 5 0 0 0 - - -;
#X obj 242 74 soundfiler;
#N canvas 0 50 450 250 (subpatch) 0;
#X array message 1.93664e+06 float 2;
#X coords 0 1 1.93664e+06 -1 200 140 1;
#X restore 13 400 graph;
#X obj 41 259 tabplay~ message;
#X obj 42 339 *~ 0.5, f 11;
#X obj 41 240 bng 15 250 50 0 empty empty empty 17 7 0 10 -262144 -1
-1;
#X msg 242 51 read -resize message.wav message;
#X obj 105 188 clip 0 1;
#X floatatom 105 211 5 0 0 0 - - -;
#X obj 185 189 clip 0 1;
#X floatatom 185 212 5 0 0 0 - - -;
#X obj 105 74 netreceive -u -b 3000;
#X connect 0 0 3 0;
#X connect 2 0 1 0;
#X connect 2 0 1 1;
#X connect 3 0 2 0;
#X connect 4 0 5 0;
#X connect 4 0 6 0;
#X connect 4 0 17 0;
#X connect 4 0 16 0;
#X connect 6 0 22 0;
#X connect 7 0 8 0;
#X connect 8 0 9 0;
#X connect 9 0 10 0;
#X connect 9 1 11 0;
#X connect 10 0 18 0;
#X connect 11 0 20 0;
#X connect 14 0 15 0;
#X connect 15 0 1 0;
#X connect 15 0 1 1;
#X connect 16 0 14 0;
#X connect 17 0 12 0;
#X connect 18 0 19 0;
#X connect 19 0 15 1;
#X connect 20 0 21 0;
#X connect 21 0 2 1;
#X connect 22 0 7 0;
