#N canvas 904 299 962 587 10;
#X obj 88 94 soundfiler;
#N canvas 0 50 450 250 (subpatch) 0;
#X array message 588793 float 2;
#X coords 0 1 588793 -1 200 140 1;
#X restore 21 357 graph;
#X msg 13 95 \; pd dsp 1;
#X obj 208 161 noise~;
#X obj 79 323 dac~;
#X obj 79 161 tabplay~ message;
#X obj 79 139 bng 15 250 50 0 empty empty empty 17 7 0 10 -262144 -1
-1;
#X obj 88 48 delay 2000;
#X obj 13 73 delay 2000;
#X obj 88 25 loadbang;
#X obj 208 184 lop~ 100;
#X msg 88 72 read -resize PLW.wav message;
#X obj 285 122 delay 5000;
#X obj 342 71 random 5000;
#X obj 342 94 + 2500;
#X floatatom 294 277 5 0 0 0 - - -;
#X obj 294 254 line;
#X obj 208 247 *~ 1;
#X msg 294 208 1 1000;
#X msg 352 208 0.25 1000;
#X obj 87 253 *~ 4;
#X connect 3 0 10 0;
#X connect 5 0 20 0;
#X connect 5 1 12 0;
#X connect 5 1 18 0;
#X connect 6 0 5 0;
#X connect 6 0 13 0;
#X connect 6 0 19 0;
#X connect 7 0 11 0;
#X connect 7 0 8 0;
#X connect 8 0 2 0;
#X connect 8 0 6 0;
#X connect 9 0 7 0;
#X connect 10 0 17 0;
#X connect 11 0 0 0;
#X connect 12 0 6 0;
#X connect 13 0 14 0;
#X connect 14 0 12 1;
#X connect 15 0 17 1;
#X connect 16 0 15 0;
#X connect 17 0 4 0;
#X connect 17 0 4 1;
#X connect 18 0 16 0;
#X connect 19 0 16 0;
#X connect 20 0 4 0;
#X connect 20 0 4 1;
