#N canvas 262 186 962 587 10;
#X msg 88 72 read -resize message.wav message;
#X obj 88 94 soundfiler;
#N canvas 0 50 450 250 (subpatch) 0;
#X array message 1.93664e+06 float 2;
#X coords 0 1 1.93664e+06 -1 200 140 1;
#X restore 21 357 graph;
#X msg 13 95 \; pd dsp 1;
#X obj 293 116 oscparse;
#X obj 293 139 route list;
#X obj 293 185 clip 0 1;
#X floatatom 293 208 5 0 0 0 - - -;
#X obj 356 185 clip 0 1;
#X floatatom 356 210 5 0 0 0 - - -;
#X obj 208 161 noise~;
#X obj 208 247 *~ 0.5;
#X obj 79 323 dac~;
#X obj 79 161 tabplay~ message;
#X obj 79 248 *~ 0.5;
#X obj 79 139 bng 15 250 50 0 empty empty empty 17 7 0 10 -262144 -1
-1;
#X obj 88 48 delay 2000;
#X obj 13 73 delay 2000;
#X obj 88 25 loadbang;
#X msg 293 71 listen 8000;
#X obj 293 93 netreceive -u -b 8000;
#X obj 293 162 route sampleVol noiseVol mainVol;
#X obj 419 185 clip 0 1;
#X floatatom 419 210 5 0 0 0 - - -;
#X obj 78 291 *~ 0.5;
#X obj 208 184 lop~ 100;
#X connect 0 0 1 0;
#X connect 4 0 5 0;
#X connect 5 0 21 0;
#X connect 6 0 7 0;
#X connect 7 0 14 1;
#X connect 8 0 9 0;
#X connect 9 0 11 1;
#X connect 10 0 25 0;
#X connect 11 0 24 0;
#X connect 13 0 14 0;
#X connect 13 1 15 0;
#X connect 14 0 24 0;
#X connect 15 0 13 0;
#X connect 16 0 0 0;
#X connect 16 0 17 0;
#X connect 16 0 19 0;
#X connect 17 0 3 0;
#X connect 17 0 15 0;
#X connect 18 0 16 0;
#X connect 19 0 20 0;
#X connect 20 0 4 0;
#X connect 21 0 6 0;
#X connect 21 1 8 0;
#X connect 21 2 22 0;
#X connect 22 0 23 0;
#X connect 23 0 24 1;
#X connect 24 0 12 0;
#X connect 24 0 12 1;
#X connect 25 0 11 0;
