#N canvas 774 193 948 513 10;
#N canvas 202 412 626 445 load_sounds 0;
#X obj 14 9 loadbang;
#X msg 14 62 read -resize ./Audio/flag0.wav flag0;
#X msg 24 82 read -resize ./Audio/flag1.wav flag1;
#X msg 34 102 read -resize ./Audio/flag2.wav flag2;
#X msg 44 122 read -resize ./Audio/flagLoop.wav flagLoop;
#X msg 54 142 read -resize ./Audio/windLoop.wav windLoop;
#X msg 64 162 read -resize ./Audio/pigeon0.wav pigeon0;
#X msg 74 182 read -resize ./Audio/pigeon1.wav pigeon1;
#X msg 84 202 read -resize ./Audio/pigeon2.wav pigeon2;
#X obj 14 32 del 5000;
#X obj 14 218 soundfiler;
#X obj 14 241 array define flag0;
#X obj 14 261 array define flag1;
#X obj 14 281 array define flag2;
#X obj 14 301 array define flagLoop;
#X obj 14 321 array define windLoop;
#X obj 14 341 array define pigeon0;
#X obj 14 361 array define pigeon1;
#X obj 14 381 array define pigeon2;
#X connect 0 0 9 0;
#X connect 1 0 10 0;
#X connect 2 0 10 0;
#X connect 3 0 10 0;
#X connect 4 0 10 0;
#X connect 5 0 10 0;
#X connect 6 0 10 0;
#X connect 7 0 10 0;
#X connect 8 0 10 0;
#X connect 9 0 1 0;
#X connect 9 0 2 0;
#X connect 9 0 3 0;
#X connect 9 0 4 0;
#X connect 9 0 5 0;
#X connect 9 0 6 0;
#X connect 9 0 7 0;
#X connect 9 0 8 0;
#X restore 5 8 pd load_sounds;
#N canvas 129 449 450 300 loops 0;
#X obj 9 12 inlet;
#X obj 9 65 tabplay~ windLoop;
#X obj 129 65 tabplay~ flagLoop;
#X obj 9 44 bng 15 250 50 0 empty empty empty 17 7 0 10 -262144 -1
-1;
#X obj 129 43 bng 15 250 50 0 empty empty empty 17 7 0 10 -262144 -1
-1;
#X obj 9 104 outlet~;
#X obj 228 87 bng 15 250 50 0 empty empty empty 17 7 0 10 -262144 -1
-1;
#X obj 228 107 random 10000;
#X obj 228 130 + 5000;
#X obj 183 152 del 5000;
#X connect 0 0 3 0;
#X connect 0 0 4 0;
#X connect 1 0 5 0;
#X connect 1 1 3 0;
#X connect 2 0 5 0;
#X connect 2 1 6 0;
#X connect 3 0 1 0;
#X connect 4 0 2 0;
#X connect 6 0 7 0;
#X connect 6 0 9 0;
#X connect 7 0 8 0;
#X connect 8 0 9 1;
#X connect 9 0 4 0;
#X restore 72 82 pd loops;
#X obj 5 29 loadbang;
#X msg 5 82 \; pd dsp 1;
#N canvas 602 362 1014 512 flags 0;
#X obj 16 12 inlet;
#X obj 16 42 bng 15 250 50 0 empty empty empty 17 7 0 10 -262144 -1
-1;
#X obj 16 64 random 3;
#X obj 64 103 sel 0 1 2;
#X msg 64 126 set flag0;
#X msg 81 146 set flag1;
#X msg 98 166 set flag2;
#X obj 64 199 tabplay~ flag0;
#X obj 16 87 t b f;
#X obj 16 110 del 5;
#X obj 64 435 outlet~;
#X obj 145 223 bng 15 250 50 0 empty empty empty 17 7 0 10 -262144
-1 -1;
#X obj 145 243 random 10000;
#X obj 145 266 + 5000;
#X obj 100 288 del 5000;
#X floatatom 112 377 5 0 0 0 - - -;
#X obj 112 331 random 100;
#X obj 112 354 / 100;
#X obj 65 413 *~ 0.5;
#X connect 0 0 1 0;
#X connect 1 0 2 0;
#X connect 1 0 16 0;
#X connect 2 0 8 0;
#X connect 3 0 4 0;
#X connect 3 1 5 0;
#X connect 3 2 6 0;
#X connect 4 0 7 0;
#X connect 5 0 7 0;
#X connect 6 0 7 0;
#X connect 7 0 18 0;
#X connect 7 1 11 0;
#X connect 8 0 9 0;
#X connect 8 1 3 0;
#X connect 9 0 7 0;
#X connect 11 0 12 0;
#X connect 11 0 14 0;
#X connect 12 0 13 0;
#X connect 13 0 14 1;
#X connect 14 0 1 0;
#X connect 15 0 18 1;
#X connect 16 0 17 0;
#X connect 17 0 15 0;
#X connect 18 0 10 0;
#X restore 128 82 pd flags;
#X obj 72 119 dac~;
#N canvas 287 414 1014 650 pigeons 0;
#X obj 16 12 inlet;
#X obj 16 42 bng 15 250 50 0 empty empty empty 17 7 0 10 -262144 -1
-1;
#X obj 16 64 random 3;
#X obj 64 103 sel 0 1 2;
#X obj 16 87 t b f;
#X obj 16 110 del 5;
#X obj 65 419 outlet~;
#X obj 157 223 bng 15 250 50 0 empty empty empty 17 7 0 10 -262144
-1 -1;
#X obj 157 266 + 5000;
#X obj 112 288 del 5000;
#X msg 64 126 set pigeon0;
#X msg 81 146 set pigeon1;
#X msg 98 166 set pigeon2;
#X obj 64 199 tabplay~ pigeon0;
#X obj 157 243 random 5000;
#X floatatom 111 358 5 0 0 0 - - -;
#X obj 111 312 random 100;
#X obj 111 335 / 100;
#X obj 64 394 *~ 0.5;
#X connect 0 0 1 0;
#X connect 1 0 2 0;
#X connect 1 0 16 0;
#X connect 2 0 4 0;
#X connect 3 0 10 0;
#X connect 3 1 11 0;
#X connect 3 2 12 0;
#X connect 4 0 5 0;
#X connect 4 1 3 0;
#X connect 5 0 13 0;
#X connect 7 0 9 0;
#X connect 7 0 14 0;
#X connect 8 0 9 1;
#X connect 9 0 1 0;
#X connect 10 0 13 0;
#X connect 11 0 13 0;
#X connect 12 0 13 0;
#X connect 13 0 18 0;
#X connect 13 1 7 0;
#X connect 14 0 8 0;
#X connect 15 0 18 1;
#X connect 16 0 17 0;
#X connect 17 0 15 0;
#X connect 18 0 6 0;
#X restore 188 82 pd pigeons;
#X connect 1 0 5 0;
#X connect 1 0 5 1;
#X connect 2 0 3 0;
#X connect 2 0 1 0;
#X connect 2 0 4 0;
#X connect 2 0 6 0;
#X connect 4 0 5 0;
#X connect 4 0 5 1;
#X connect 6 0 5 0;
#X connect 6 0 5 1;
