#N canvas 762 149 959 828 10;
#X msg 98 29 listen 8000;
#X obj 98 51 netreceive -u -b 8000;
#X obj 98 73 oscparse;
#X obj 98 96 route list;
#N canvas 683 237 557 575 load_sounds 1;
#X obj 28 399 soundfiler;
#X msg 38 114 read -resize ./Audio/intro0.wav intro0;
#X msg 48 134 read -resize ./Audio/intro1.wav intro1;
#X msg 58 154 read -resize ./Audio/intro2.wav intro2;
#X msg 68 174 read -resize ./Audio/intro3.wav intro3;
#X msg 28 94 read -resize ./Audio/mainIntro.wav mainIntro;
#X obj 389 114 array define intro0;
#X obj 389 94 array define mainIntro;
#X obj 389 134 array define intro1;
#X obj 389 154 array define intro2;
#X obj 389 174 array define intro3;
#X msg 78 194 read -resize ./Audio/LBClue0.wav lbclue0;
#X msg 88 214 read -resize ./Audio/LBClue1.wav lbclue1;
#X msg 118 274 read -resize ./Audio/NCClue1.wav ncclue1;
#X obj 389 194 array define lbclue0;
#X obj 389 214 array define lbclue1;
#X obj 389 234 array define moclue0;
#X obj 389 254 array define ncclue0;
#X obj 389 274 array define ncclue1;
#X obj 389 294 array define udclue0;
#X msg 128 294 read -resize ./Audio/UDClue0.wav udclue0;
#X msg 108 254 read -resize ./Audio/NCClue0.wav ncclue0;
#X msg 98 234 read -resize ./Audio/MOClue0.wav moclue0;
#X obj 28 32 delay 5000;
#X obj 28 10 loadbang;
#X connect 1 0 0 0;
#X connect 2 0 0 0;
#X connect 3 0 0 0;
#X connect 4 0 0 0;
#X connect 5 0 0 0;
#X connect 11 0 0 0;
#X connect 12 0 0 0;
#X connect 13 0 0 0;
#X connect 20 0 0 0;
#X connect 21 0 0 0;
#X connect 22 0 0 0;
#X connect 23 0 5 0;
#X connect 23 0 1 0;
#X connect 23 0 2 0;
#X connect 23 0 3 0;
#X connect 23 0 4 0;
#X connect 23 0 11 0;
#X connect 23 0 12 0;
#X connect 23 0 22 0;
#X connect 23 0 21 0;
#X connect 23 0 13 0;
#X connect 23 0 20 0;
#X connect 24 0 23 0;
#X restore 7 7 pd load_sounds;
#X obj 98 7 loadbang;
#X floatatom 98 142 5 0 0 0 - - -;
#X obj 139 142 bng 15 250 50 0 empty empty empty 17 7 0 10 -262144
-1 -1;
#X floatatom 98 175 5 0 0 0 - - -;
#X obj 98 516 tabplay~ mainIntro;
#X msg 149 330 set mainIntro;
#X msg 166 352 set intro0;
#X msg 181 375 set intro1;
#X obj 149 303 sel 0 1 2 3 4, f 14;
#X obj 98 300 del 5;
#X obj 99 564 dac~;
#X obj 271 190 i;
#X obj 271 213 sel 1 2 3 4, f 85;
#X obj 304 242 tgl 15 0 empty empty empty 17 7 0 10 -262144 -1 -1 0
1;
#X obj 271 265 spigot;
#X obj 348 310 tgl 15 0 empty empty empty 17 7 0 10 -262144 -1 -1 1
1;
#X obj 348 287 != 1;
#X obj 317 330 spigot;
#X msg 317 353 set lbclue1;
#X msg 271 288 set lbclue0;
#X obj 98 119 route main clue;
#X msg 197 398 set intro2;
#X msg 213 420 set intro3;
#X msg 524 249 set moclue0;
#X msg 651 248 set udclue0;
#X obj 222 212 sel 0;
#X obj 249 235 bng 15 250 50 0 empty empty empty 17 7 0 10 -262144
-1 -1;
#X obj 244 23 i 0;
#X obj 430 245 tgl 15 0 empty empty empty 17 7 0 10 -262144 -1 -1 0
1;
#X obj 397 268 spigot;
#X obj 474 313 tgl 15 0 empty empty empty 17 7 0 10 -262144 -1 -1 0
1;
#X obj 474 290 != 1;
#X obj 443 333 spigot;
#X msg 397 291 set ncclue0;
#X msg 443 355 set ncclue1;
#X obj 99 541 *~ 1;
#X obj 219 140 print;
#X msg 530 43 \; pd dsp 1;
#X obj 98 277 t b f, f 9;
#X connect 0 0 1 0;
#X connect 1 0 2 0;
#X connect 2 0 3 0;
#X connect 3 0 25 0;
#X connect 5 0 0 0;
#X connect 5 0 32 0;
#X connect 5 0 42 0;
#X connect 6 0 8 0;
#X connect 7 0 16 0;
#X connect 8 0 16 1;
#X connect 8 0 43 0;
#X connect 9 0 40 0;
#X connect 10 0 9 0;
#X connect 11 0 9 0;
#X connect 12 0 9 0;
#X connect 13 0 10 0;
#X connect 13 1 11 0;
#X connect 13 2 12 0;
#X connect 13 3 26 0;
#X connect 13 4 27 0;
#X connect 14 0 9 0;
#X connect 16 0 17 0;
#X connect 16 0 30 0;
#X connect 17 0 18 0;
#X connect 17 0 19 0;
#X connect 17 0 22 0;
#X connect 17 1 34 0;
#X connect 17 1 37 0;
#X connect 17 1 33 0;
#X connect 17 2 28 0;
#X connect 17 3 29 0;
#X connect 18 0 19 1;
#X connect 18 0 21 0;
#X connect 19 0 24 0;
#X connect 20 0 22 1;
#X connect 21 0 20 0;
#X connect 22 0 23 0;
#X connect 23 0 9 0;
#X connect 24 0 9 0;
#X connect 25 0 6 0;
#X connect 25 1 7 0;
#X connect 25 2 41 0;
#X connect 26 0 9 0;
#X connect 27 0 9 0;
#X connect 28 0 9 0;
#X connect 29 0 9 0;
#X connect 30 1 31 0;
#X connect 31 0 14 0;
#X connect 32 0 18 0;
#X connect 33 0 34 1;
#X connect 33 0 36 0;
#X connect 34 0 38 0;
#X connect 35 0 37 1;
#X connect 36 0 35 0;
#X connect 37 0 39 0;
#X connect 38 0 9 0;
#X connect 39 0 9 0;
#X connect 40 0 15 0;
#X connect 40 0 15 1;
#X connect 43 0 14 0;
#X connect 43 1 13 0;
