#N canvas 293 215 911 538 10;
#X obj 7 7 loadbang;
#X obj 25 175 dac~;
#X msg 208 61 listen 8000;
#X obj 208 85 netreceive -u -b 8000;
#X obj 208 110 oscparse;
#X obj 208 133 route list;
#X msg 208 25 \; pd dsp 1;
#X obj 26 145 *~;
#X obj 7 105 line~;
#X msg 62 71 0 100;
#X obj 48 105 osc~ 1000;
#X msg 7 49 0.5 100;
#X obj 62 49 del 500;
#X obj 150 186 print;
#X obj 208 156 route play;
#X obj 235 212 sel 1 2 3 4 5 6 7 8 9 10, f 110;
#N canvas 1244 511 565 300 loadsounds 1;
#X obj 7 9 loadbang;
#X obj 7 252 soundfiler;
#X msg 7 32 read -resize pippa1.wav pippa1;
#X msg 17 52 read -resize pippa2.wav pippa2;
#X msg 27 72 read -resize toby1.wav toby1;
#X obj 314 68 array define toby1;
#X obj 314 48 array define pippa2;
#X obj 314 28 array define pippa1;
#X obj 314 88 array define hattie1;
#X msg 37 92 read -resize hattie1.wav hattie1;
#X obj 314 108 array define harry1;
#X obj 314 128 array define harry2;
#X msg 47 112 read -resize harry1.wav harry1;
#X msg 57 132 read -resize harry1.wav harry2;
#X connect 0 0 2 0;
#X connect 0 0 3 0;
#X connect 0 0 4 0;
#X connect 0 0 9 0;
#X connect 0 0 12 0;
#X connect 0 0 13 0;
#X connect 2 0 1 0;
#X connect 3 0 1 0;
#X connect 4 0 1 0;
#X connect 9 0 1 0;
#X connect 12 0 1 0;
#X connect 13 0 1 0;
#X restore 438 57 pd loadsounds;
#X obj 208 190 t b f;
#X obj 208 299 dac~;
#X obj 285 160 bng 15 250 50 0 empty empty empty 17 7 0 10 -262144
-1 -1;
#X msg 235 234 set pippa1;
#X msg 300 235 set pippa2;
#X msg 826 234 set toby1;
#X obj 208 274 tabplay~ pippa1;
#X msg 371 236 set hattie1;
#X msg 451 236 set harry1;
#X msg 521 236 set harry2;
#X connect 0 0 2 0;
#X connect 0 0 6 0;
#X connect 0 0 11 0;
#X connect 0 0 12 0;
#X connect 2 0 3 0;
#X connect 3 0 4 0;
#X connect 4 0 5 0;
#X connect 5 0 14 0;
#X connect 7 0 1 0;
#X connect 7 0 1 1;
#X connect 8 0 7 1;
#X connect 9 0 8 0;
#X connect 10 0 7 0;
#X connect 11 0 8 0;
#X connect 12 0 9 0;
#X connect 14 0 13 0;
#X connect 14 0 17 0;
#X connect 15 0 20 0;
#X connect 15 1 21 0;
#X connect 15 2 24 0;
#X connect 15 3 25 0;
#X connect 15 4 26 0;
#X connect 15 9 22 0;
#X connect 17 0 23 0;
#X connect 17 1 15 0;
#X connect 19 0 23 0;
#X connect 20 0 23 0;
#X connect 21 0 23 0;
#X connect 22 0 23 0;
#X connect 23 0 18 0;
#X connect 23 0 18 1;
#X connect 24 0 23 0;
#X connect 25 0 23 0;
#X connect 26 0 23 0;
