#N canvas 671 190 911 538 10;
#X obj 7 7 loadbang;
#N canvas 0 50 450 250 (subpatch) 0;
#X array array1 1.93664e+06 float 2;
#X coords 0 1 1.93664e+06 -1 200 140 1;
#X restore 8 98 graph;
#X obj 7 58 soundfiler;
#X obj 222 74 t b;
#X obj 222 108 tabplay~ array1;
#X obj 222 138 dac~;
#X msg 7 32 read -resize message.wav array1;
#X obj 222 44 bng 15 250 50 0 empty empty empty 17 7 0 10 -262144 -1
-1;
#X msg 263 23 \; pd dsp 1;
#X msg 309 133 \; pd quit;
#X connect 0 0 6 0;
#X connect 0 0 8 0;
#X connect 2 0 3 0;
#X connect 3 0 4 0;
#X connect 4 0 5 0;
#X connect 4 0 5 1;
#X connect 4 1 9 0;
#X connect 6 0 2 0;
#X connect 7 0 3 0;
